<?xml version="1.0" encoding="UTF-8"?>
<svg id="Layer_2" data-name="Layer 2" xmlns="http://www.w3.org/2000/svg" viewBox="0 0 357.48 356.49">
  <defs>
    <style>
      .cls-1 {
        fill: #1e6866;
      }

      .cls-2 {
        fill: #2fa3a3;
      }

      .cls-3 {
        fill: #3cced6;
      }

      .cls-4 {
        fill: #e2f2f2;
      }

      .cls-5 {
        fill: #aff2f2;
      }
    </style>
  </defs>
  <g id="estrella">
    <g>
      <path class="cls-2" d="M318.13,158.57l-45.39-17.55c-51.39-48.7-74.32-101.67-74.32-101.67L159.06,0l-29.65,121.47L0,158.57l39.35,39.35s69.58,31.53,123.88,101.61l-4.17,17.61,39.35,39.35s47.51-109.78,159.06-158.57l-39.35-39.35Z"/>
      <path class="cls-5" d="M318.13,158.57C206.58,109.78,159.06,0,159.06,0,106.83,110.17,0,158.57,0,158.57,0,158.57,106.83,206.97,159.06,317.14c0,0,47.51-109.78,159.06-158.57Z"/>
      <g>
        <path class="cls-4" d="M274.88,134.88l-140.14,140.14c5.84,8.48,11.41,17.46,16.59,26.94l44.25-44.25c16.22-21.3,38.1-45.22,66.21-66.21l40.49-40.49c-9.66-4.98-18.79-10.4-27.39-16.13Z"/>
        <path class="cls-4" d="M106.14,239.12L238.67,106.58c-18.39-16.68-33.37-34.09-45.17-49.89L56.39,193.81c15.66,11.9,32.98,26.94,49.75,45.31Z"/>
      </g>
      <path class="cls-3" d="M158.99,291.68C118.05,219.58,56.5,176.93,24.93,158.57c31.57-18.36,93.12-61,134.06-133.11,18.19,32.16,60.33,94.02,132.53,133.11-72.2,39.09-114.35,100.95-132.53,133.11Z"/>
      <g>
        <path class="cls-1" d="M167.84,40.23c-3.41-5.39-6.36-10.36-8.86-14.77C118.05,97.57,56.5,140.21,24.93,158.57c4.33,2.52,9.24,5.51,14.56,8.95,31.86-19.04,88.93-60.01,128.35-127.29Z"/>
        <path class="cls-1" d="M287.47,160.83c1.35-.76,2.68-1.52,4.05-2.26-26.51-14.35-48.95-31.78-67.66-49.67,17.34,18.14,38.45,36.34,63.61,51.93Z"/>
        <path class="cls-1" d="M108.39,224.28c17.97,18.72,35.66,41.09,50.6,67.41.67-1.19,1.39-2.43,2.12-3.69-16.1-25.12-34.51-46.27-52.72-63.71Z"/>
      </g>
      <path class="cls-1" d="M173.21,314.75c12.16-23.76,57.23-101.79,142.39-142.19l21.88,21.88c-80.91,41.17-125.68,111.45-142.29,142.28l-21.98-21.98Z"/>
    </g>
  </g>
</svg>